<svg preserveAspectRatio="none" width="100%" height="100%" overflow="visible" style="display: block;" viewBox="0 0 64 64" fill="none" xmlns="http://www.w3.org/2000/svg">
<g id="Group 4">
<path id="Ellipse 2" d="M32 1.46972e-06C27.7977 1.51983e-06 23.6365 0.827706 19.7541 2.43586C15.8717 4.04401 12.3441 6.40111 9.37259 9.37259C6.40111 12.3441 4.04401 15.8717 2.43586 19.7541C0.827707 23.6366 1.46298e-06 27.7977 1.69678e-06 32L12.8 32C12.8 29.4786 13.2966 26.9819 14.2615 24.6525C15.2264 22.323 16.6407 20.2064 18.4236 18.4235C20.2064 16.6407 22.323 15.2264 24.6525 14.2615C26.9819 13.2966 29.4786 12.8 32 12.8L32 1.46972e-06Z" fill="var(--fill-0, #3DC7FF)"/>
<path id="Ellipse 4" d="M64 1.46972e-06C59.7977 1.51983e-06 55.6365 0.827706 51.7541 2.43586C47.8717 4.04401 44.3441 6.40111 41.3726 9.37259C38.4011 12.3441 36.044 15.8717 34.4359 19.7541C32.8277 23.6366 32 27.7977 32 32L44.8 32C44.8 29.4786 45.2966 26.9819 46.2615 24.6525C47.2264 22.323 48.6407 20.2064 50.4236 18.4235C52.2064 16.6407 54.323 15.2264 56.6525 14.2615C58.9819 13.2966 61.4786 12.8 64 12.8L64 1.46972e-06Z" fill="var(--fill-0, #3DC7FF)"/>
<path id="Ellipse 5" d="M64 32C59.7977 32 55.6365 32.8277 51.7541 34.4359C47.8717 36.044 44.3441 38.4011 41.3726 41.3726C38.4011 44.3441 36.044 47.8717 34.4359 51.7541C32.8277 55.6366 32 59.7977 32 64L44.8 64C44.8 61.4786 45.2966 58.9819 46.2615 56.6525C47.2264 54.323 48.6407 52.2064 50.4236 50.4235C52.2064 48.6407 54.323 47.2264 56.6525 46.2615C58.9819 45.2966 61.4786 44.8 64 44.8L64 32Z" fill="var(--fill-0, #3DC7FF)"/>
<path id="Ellipse 3" d="M32 32C27.7977 32 23.6365 32.8277 19.7541 34.4359C15.8717 36.044 12.3441 38.4011 9.37259 41.3726C6.40111 44.3441 4.04401 47.8717 2.43586 51.7541C0.827706 55.6366 1.3294e-06 59.7977 1.69678e-06 64L12.8 64C12.8 61.4786 13.2966 58.9819 14.2615 56.6525C15.2264 54.323 16.6407 52.2064 18.4236 50.4235C20.2064 48.6407 22.323 47.2264 24.6525 46.2615C26.9819 45.2966 29.4786 44.8 32 44.8L32 32Z" fill="var(--fill-0, #3DC7FF)"/>
</g>
</svg>
