<svg preserveAspectRatio="none" width="100%" height="100%" overflow="visible" style="display: block;" viewBox="0 0 70 22" fill="none" xmlns="http://www.w3.org/2000/svg">
<g id="Frame">
<path id="Vector" d="M66 15.3557C66 19.7852 62.0864 22 57.4963 22C54.5007 22 51.795 21.311 49.5725 20.0313C50.1523 19.1454 51.022 17.6689 51.4085 16.7338C52.9546 17.3736 55.4187 18.1611 57.6413 18.1611C59.8155 18.1611 61.5549 17.226 61.5549 15.9955C61.5549 14.9128 61.1684 14.0761 57.6896 12.9441C53.2445 11.5168 50.6837 10.0895 50.6837 6.25056C50.6837 2.21477 54.3558 0 58.9458 0C60.9268 0 63.3426 0.442953 64.8887 0.836689L64.6471 6.69351L61.3616 6.6443L61.41 3.74049C60.8785 3.59284 60.202 3.54362 59.2357 3.54362C56.7233 3.54362 55.0322 4.38031 55.0322 5.90604C55.0322 6.9396 55.9985 7.92394 59.4773 9.05593C63.9707 10.5324 66 11.9105 66 15.3557Z" fill="var(--fill-0, white)"/>
<path id="Vector_2" fill-rule="evenodd" clip-rule="evenodd" d="M20.5827 18.9485H22.2738V21.6063H14.2533V18.9485H15.896L14.8814 15.9955H6.76427L5.70132 18.9485H7.48902V21.6063H0V18.9485H1.7877L7.34407 2.85459H5.12152V0.147651H14.06L20.5827 18.9485ZM13.7218 12.6488L10.7745 4.28188L7.87555 12.6488H13.7218Z" fill="var(--fill-0, white)"/>
<path id="Vector_3" fill-rule="evenodd" clip-rule="evenodd" d="M50.2489 12.5503C50.2489 17.7673 46.0454 22 40.9722 22C38.4597 22 36.2372 20.9664 34.5461 19.3423C33.4348 20.7696 31.3572 21.9508 28.8448 21.9508C25.8492 21.9508 22.7086 20.4743 22.7086 15.9463V7.08725H19.5681V3.74049H22.7086V0.098434H27.0088V3.74049H31.7921V7.08725H27.0088V15.5034C27.0088 17.3244 28.1201 18.5548 29.6662 18.5548C30.7774 18.5548 31.9854 18.0134 32.855 17.0783C32.1303 15.7002 31.6955 14.1745 31.6955 12.5503C31.6955 8.36689 34.3529 4.77405 38.1215 3.54362C37.3485 4.72483 36.817 7.38255 36.817 8.85906C36.0922 9.89262 35.6091 11.123 35.6091 12.5503C35.6091 15.7494 38.0249 18.3579 40.9722 18.3579C42.0351 18.3579 43.0498 18.0134 43.8712 17.4228C40.5373 15.9955 38.2182 12.5996 38.2182 8.71141C38.2182 6.59508 38.8946 4.67561 40.0059 3.10067C40.3441 3.05145 40.634 3.05145 40.9722 3.05145C42.2767 3.05145 43.4846 3.34676 44.5959 3.78971C47.9297 5.26622 50.2489 8.61298 50.2489 12.5503ZM46.3353 12.5503C46.3353 9.8434 44.6442 7.57942 42.4217 6.9396C42.2284 7.48098 42.1318 8.07159 42.1318 8.71141C42.1318 11.3691 43.8228 13.6331 46.0454 14.3221C46.2387 13.7808 46.3353 13.1902 46.3353 12.5503Z" fill="var(--fill-0, white)"/>
</g>
</svg>
